<svg xmlns="http://www.w3.org/2000/svg" xmlns:xlink="http://www.w3.org/1999/xlink" width="512" zoomAndPan="magnify" viewBox="0 0 384 383.999986" height="512" preserveAspectRatio="xMidYMid meet" version="1.0"><defs><clipPath id="fbbc99a905"><path d="M 69 320 L 327 320 L 327 383.652344 L 69 383.652344 Z M 69 320 " clip-rule="nonzero"/></clipPath><clipPath id="273a63fd04"><path d="M 92 0.402344 L 305 0.402344 L 305 110 L 92 110 Z M 92 0.402344 " clip-rule="nonzero"/></clipPath><clipPath id="f11f7c5c55"><path d="M 236.832031 49.277344 L 242.867188 49.277344 L 242.867188 61.554688 L 236.832031 61.554688 Z M 236.832031 49.277344 " clip-rule="nonzero"/></clipPath></defs><path fill="#a6a6a6" d="M 312.085938 249.007812 C 307.441406 243.125 302.488281 236.3125 307.441406 229.191406 C 313.324219 220.523438 316.730469 209.996094 315.800781 199.160156 C 314.5625 184.921875 308.371094 127.335938 304.964844 96.066406 C 290.101562 99.160156 264.714844 106.59375 250.785156 118.667969 L 250.785156 139.410156 L 145.832031 139.410156 L 145.832031 118.355469 C 131.898438 106.59375 106.511719 99.160156 91.652344 95.757812 C 88.246094 127.027344 82.054688 184.609375 80.816406 199.160156 C 79.886719 209.996094 83.292969 220.214844 89.175781 229.191406 C 94.128906 236.621094 89.175781 243.125 84.53125 249.007812 C 38.402344 308.757812 102.796875 336.3125 102.796875 336.3125 L 293.507812 336.3125 C 293.820312 336.3125 358.214844 308.757812 312.085938 249.007812 Z M 145.832031 145.910156 L 251.09375 145.910156 L 251.09375 175.941406 L 145.832031 175.941406 Z M 145.832031 182.753906 L 251.09375 182.753906 L 251.09375 212.785156 L 145.832031 212.785156 Z M 251.09375 262.9375 C 251.09375 265.726562 249.855469 268.203125 248 270.058594 C 246.140625 271.917969 243.664062 273.15625 240.878906 273.15625 L 156.046875 273.15625 C 150.476562 273.15625 145.832031 268.511719 145.832031 262.9375 Z M 257.90625 284.300781 C 257.90625 287.085938 256.667969 289.5625 254.808594 291.421875 C 252.953125 293.277344 250.476562 294.515625 247.6875 294.515625 L 149.238281 294.515625 C 143.664062 294.515625 139.019531 289.875 139.019531 284.300781 Z M 261.3125 313.09375 C 259.453125 314.949219 256.976562 316.1875 254.191406 316.1875 L 142.734375 316.1875 C 137.164062 316.1875 132.519531 311.546875 132.519531 305.972656 L 264.40625 305.972656 C 264.40625 308.449219 263.167969 311.234375 261.3125 313.09375 Z M 261.3125 313.09375 " fill-opacity="1" fill-rule="nonzero"/><g clip-path="url(#fbbc99a905)"><path fill="#a6a6a6" d="M 96.914062 344.363281 L 69.671875 320.523438 C 79.578125 363.867188 91.652344 379.035156 98.152344 383.992188 L 298.460938 383.992188 C 304.964844 379.035156 317.039062 364.175781 326.945312 320.523438 L 299.699219 344.363281 Z M 96.914062 344.363281 " fill-opacity="1" fill-rule="nonzero"/></g><g clip-path="url(#273a63fd04)"><path fill="#a6a6a6" d="M 303.105469 75.324219 C 303.105469 75.324219 297.84375 35.695312 268.742188 36.625 L 257.90625 36.625 L 257.90625 21.453125 C 257.90625 9.6875 248.308594 0.402344 236.851562 0.402344 L 160.691406 0.402344 C 148.925781 0.402344 139.640625 10 139.640625 21.453125 L 139.640625 36.625 L 128.804688 36.625 C 99.390625 35.695312 93.820312 75.324219 93.820312 75.324219 C 93.820312 75.324219 93.199219 79.65625 92.582031 86.777344 C 104.035156 89.253906 132.210938 96.375 149.855469 109.996094 C 150.785156 109.6875 151.40625 109.378906 152.644531 109.378906 L 244.59375 109.378906 C 245.523438 109.378906 246.449219 109.6875 247.378906 109.996094 C 265.027344 96.375 292.890625 89.253906 304.65625 86.777344 C 303.417969 79.65625 303.105469 75.324219 303.105469 75.324219 Z M 303.105469 75.324219 " fill-opacity="1" fill-rule="nonzero"/></g><g clip-path="url(#f11f7c5c55)"><path fill="#a6a6a6" d="M 236.832031 49.277344 L 242.867188 49.277344 L 242.867188 61.5625 L 236.832031 61.5625 Z M 236.832031 49.277344 " fill-opacity="1" fill-rule="nonzero"/></g></svg>