<svg xmlns="http://www.w3.org/2000/svg" version="1.1" xmlns:xlink="http://www.w3.org/1999/xlink" xmlns:svgjs="http://svgjs.dev/svgjs" width="2000" height="530" viewBox="0 0 2000 530"><g transform="matrix(1,0,0,1,-1.2121212121212466,-2.5043451346484176)"><svg viewBox="0 0 396 105" data-background-color="#ffffff" preserveAspectRatio="xMidYMid meet" height="530" width="2000" xmlns="http://www.w3.org/2000/svg" xmlns:xlink="http://www.w3.org/1999/xlink"><g id="tight-bounds" transform="matrix(1,0,0,1,0.2400000000000091,0.49614384743034634)"><svg viewBox="0 0 395.52 104.00771230513931" height="104.00771230513931" width="395.52"><g><svg viewBox="0 0 395.52000000000004 104.00771230513932" height="104.00771230513931" width="395.52"><g transform="matrix(1,0,0,1,0,58.24127267665635)"><svg viewBox="0 0 395.52000000000004 45.76643962848297" height="45.76643962848297" width="395.52000000000004"><g id="textblocktransform"><svg viewBox="0 0 395.52000000000004 45.76643962848297" height="45.76643962848297" width="395.52000000000004" id="textblock"><g><svg viewBox="0 0 395.52000000000004 45.76643962848297" height="45.76643962848297" width="395.52000000000004"><g transform="matrix(1,0,0,1,0,0)"><svg width="395.52000000000004" viewBox="4.23 -37 322.96 37.38" height="45.76643962848297" data-palette-color="#333333"><path d="M8.28 0L4.23 0 4.23-37 26.93-37 26.93-33.52 8.28-33.52 8.28 0ZM24.5-16.95L7.08-16.95 7.08-20.4 24.5-20.4 24.5-16.95ZM29.12 0L25.15 0 36.27-29.75 42.02-29.75 53.2 0 49.1 0 38.82-28 39.42-28 29.12 0ZM47.02-9.28L31.25-9.28 32.17-12.48 46.12-12.48 47.02-9.28ZM62 0L58.22 0 58.22-29.75 62.3-29.75 79.92-4.67 79.1-4.67 79.1-29.75 82.9-29.75 82.9 0 78.8 0 61.17-25.08 62-25.08 62 0ZM102.02 0L97.97 0 97.97-26.43 87.54-26.43 87.54-29.75 112.44-29.75 112.44-26.43 102.02-26.43 102.02 0ZM113.67 0L109.69 0 120.82-29.75 126.57-29.75 137.74 0 133.64 0 123.37-28 123.97-28 113.67 0ZM131.57-9.28L115.79-9.28 116.72-12.48 130.67-12.48 131.57-9.28ZM147.96 0.38L147.96 0.38Q146.01 0.38 143.93 0.08 141.84-0.23 140.04-0.8L140.04-0.8 140.04-4.13Q141.39-3.73 142.78-3.45 144.16-3.18 145.49-3.04 146.81-2.9 147.99-2.9L147.99-2.9Q150.59-2.9 152.25-3.49 153.91-4.08 154.7-5.21 155.49-6.35 155.49-7.98L155.49-7.98Q155.49-9.35 154.95-10.3 154.41-11.25 153.11-11.93 151.81-12.6 149.54-13.13L149.54-13.13 147.96-13.48Q143.49-14.48 141.47-16.44 139.46-18.4 139.46-21.73L139.46-21.73Q139.46-24.23 140.72-26.11 141.99-28 144.58-29.06 147.16-30.13 151.14-30.13L151.14-30.13Q152.94-30.13 154.75-29.9 156.56-29.68 158.04-29.28L158.04-29.28 158.04-25.93Q156.36-26.4 154.65-26.64 152.94-26.88 151.19-26.88L151.19-26.88Q148.44-26.88 146.74-26.28 145.04-25.68 144.25-24.58 143.46-23.48 143.46-21.93L143.46-21.93Q143.46-19.85 144.68-18.71 145.89-17.57 149.24-16.78L149.24-16.78 150.81-16.43Q153.89-15.75 155.79-14.68 157.69-13.6 158.58-12 159.46-10.4 159.46-8.2L159.46-8.2Q159.46-5.58 158.16-3.66 156.86-1.75 154.3-0.69 151.74 0.38 147.96 0.38ZM175.59 0L171.53 0 171.53-14.7 172.41-11.78 160.06-29.75 164.46-29.75 174.28-15.53 172.99-15.53 182.69-29.75 186.81-29.75 174.71-11.78 175.59-14.68 175.59 0ZM206.86 0L202.81 0 202.81-37 225.51-37 225.51-33.52 206.86-33.52 206.86 0ZM223.08-16.95L205.66-16.95 205.66-20.4 223.08-20.4 223.08-16.95ZM249.1 0L229.68 0 229.68-29.75 233.73-29.75 233.73-3.33 249.1-3.33 249.1 0ZM273.93 0L253.73 0 253.73-29.75 273.7-29.75 273.7-26.58 257.7-26.58 257.7-3.18 273.93-3.18 273.93 0ZM271.63-13.65L256.23-13.65 256.23-16.8 271.63-16.8 271.63-13.65ZM300.2 0L280 0 280-29.75 299.97-29.75 299.97-26.58 283.97-26.58 283.97-3.18 300.2-3.18 300.2 0ZM297.9-13.65L282.5-13.65 282.5-16.8 297.9-16.8 297.9-13.65ZM316.77 0L312.72 0 312.72-26.43 302.3-26.43 302.3-29.75 327.19-29.75 327.19-26.43 316.77-26.43 316.77 0Z" opacity="1" transform="matrix(1,0,0,1,0,0)" fill="#333333" class="wordmark-text-0" data-fill-palette-color="primary" id="text-0"></path></svg></g></svg></g></svg></g></svg></g><g transform="matrix(1,0,0,1,117.55591928861983,0)"><svg viewBox="0 0 160.40816142276037 47.436914674922605" height="47.436914674922605" width="160.40816142276037"><g><svg xmlns="http://www.w3.org/2000/svg" xmlns:xlink="http://www.w3.org/1999/xlink" version="1.1" x="8" y="0" viewBox="4.038297787352457 9.334615664862568 91.36193229386326 30.01165684862027" enable-background="new 0 0 100 50" xml:space="preserve" height="47.436914674922605" width="144.40816142276037" class="icon-icon-0" data-fill-palette-color="accent" id="icon-0"><path d="M28.214 35.494S27.011 39.259 21.913 39.345C16.814 39.43 15.528 35.231 15.357 34.46L13.986 34.503V35.531S6.102 35.017 4.731 34.674C4.731 34.674 4.026 34.274 4.091 34.078 4.091 34.078 4.483 33.489 5.164 33.253 5.164 33.253 4.2 31.061 4.087 30.375S4.031 27.633 4.545 26.833 4.973 26.318 4.973 26.318 4.945 24.319 5.858 23.548C6.773 22.777 10.686 20.948 13.857 19.863S24.426 17.406 24.969 17.321 25.854 17.149 25.854 17.149 36.223 11.879 41.322 10.337 64.074 9.223 68.874 10.337C73.672 11.451 83.87 15.522 85.67 16.336L90.769 17.15H93.382L93.125 17.922S93.511 19.25 93.726 20.707 93.94 23.792 94.068 24.049 95.14 26.363 95.14 26.363 95.439 27.262 95.396 28.077C95.354 28.891 95.225 32.104 95.225 32.104L94.197 33.475 85.199 34.975 85.028 34.204H83.87S83.056 38.96 77.528 39.132 70.287 35.575 70.244 35.191L29.796 35.405" fill="#0074b7" data-fill-palette-color="accent"></path></svg></g></svg></g><g><rect width="117.5559192886198" height="4.127264756662291" y="42.30964991826032" x="277.96408071138023" fill="#0074b7" data-fill-palette-color="accent"></rect><rect width="117.5559192886198" height="4.127264756662291" y="42.30964991826032" x="2.842170943040401e-14" fill="#0074b7" data-fill-palette-color="accent"></rect><rect width="117.5559192886198" height="4.127264756662291" y="34.055120404935735" x="277.96408071138023" fill="#0074b7" data-fill-palette-color="accent"></rect><rect width="117.5559192886198" height="4.127264756662291" y="34.055120404935735" x="2.842170943040401e-14" fill="#0074b7" data-fill-palette-color="accent"></rect></g></svg></g><defs></defs></svg><rect width="395.52" height="104.00771230513931" fill="none" stroke="none" visibility="hidden"></rect></g></svg></g></svg>