<svg xmlns="http://www.w3.org/2000/svg" xmlns:xlink="http://www.w3.org/1999/xlink" width="3375" zoomAndPan="magnify" viewBox="0 0 2531.25 1012.49997" height="1350" preserveAspectRatio="xMidYMid meet" version="1.0"><defs><clipPath id="1a1db8253d"><path d="M 961.648438 354.199219 L 1044.609375 354.199219 L 1044.609375 437.160156 L 961.648438 437.160156 Z M 961.648438 354.199219 " clip-rule="nonzero"/></clipPath></defs><path fill="#a6a6a6" d="M 2269.507812 883.855469 C 2269.507812 883.855469 2269.507812 878.046875 2269.507812 867.980469 C 2269.507812 862.949219 2269.507812 856.753906 2269.507812 849.398438 C 2269.121094 842.429688 2268.734375 834.300781 2268.347656 825.394531 C 2268.347656 816.492188 2267.183594 807.199219 2266.023438 797.132812 C 2265.636719 792.101562 2265.25 787.066406 2264.472656 781.648438 C 2263.699219 776.613281 2262.925781 771.195312 2262.152344 765.773438 C 2261.378906 760.355469 2260.601562 754.933594 2259.828125 749.128906 C 2258.667969 743.707031 2257.507812 737.902344 2256.34375 732.480469 C 2255.183594 726.671875 2254.410156 721.253906 2252.859375 715.445312 C 2251.3125 709.640625 2250.148438 704.21875 2248.601562 698.410156 C 2236.988281 653.117188 2219.953125 608.980469 2204.46875 577.234375 C 2202.53125 573.363281 2200.59375 569.492188 2199.046875 565.621094 C 2197.109375 562.136719 2195.175781 558.652344 2193.625 555.554688 C 2190.140625 549.359375 2187.433594 543.554688 2184.722656 538.90625 C 2182.398438 534.261719 2180.078125 531.164062 2178.527344 528.453125 C 2176.980469 526.132812 2176.207031 524.96875 2176.207031 524.96875 L 2375.585938 397.597656 C 2375.585938 397.597656 2376.746094 399.148438 2378.683594 402.246094 C 2380.617188 405.34375 2384.101562 409.988281 2387.585938 415.796875 C 2391.070312 421.601562 2395.71875 428.957031 2400.75 437.476562 C 2403.460938 441.734375 2405.78125 445.992188 2408.878906 450.636719 C 2411.589844 455.285156 2414.300781 460.703125 2417.011719 465.738281 C 2428.625 486.644531 2441.398438 512.195312 2453.402344 539.683594 C 2456.5 546.652344 2459.210938 553.617188 2462.304688 560.976562 C 2463.855469 564.460938 2465.402344 568.332031 2466.953125 571.816406 C 2468.113281 575.6875 2469.660156 579.171875 2471.210938 583.042969 C 2476.628906 598.140625 2482.4375 612.851562 2486.695312 628.726562 C 2489.019531 636.46875 2491.34375 644.210938 2493.664062 651.953125 C 2495.988281 659.695312 2497.921875 667.441406 2499.859375 675.183594 C 2501.796875 682.925781 2503.730469 690.667969 2505.667969 698.023438 C 2507.214844 705.765625 2508.761719 713.125 2510.3125 720.480469 C 2511.859375 727.835938 2513.410156 735.191406 2514.570312 742.546875 C 2515.730469 749.902344 2516.894531 756.871094 2518.054688 763.839844 C 2519.992188 777.777344 2522.3125 790.550781 2523.089844 802.554688 C 2524.25 814.554688 2525.410156 825.78125 2526.183594 835.460938 C 2526.570312 845.140625 2526.960938 854.042969 2527.347656 861.011719 C 2528.121094 875.335938 2528.507812 883.082031 2528.507812 883.082031 L 2269.507812 883.082031 Z M 2269.507812 883.855469 " fill-opacity="1" fill-rule="nonzero"/><path fill="#a6a6a6" d="M 2120.070312 444.445312 C 2120.070312 444.445312 2116.199219 439.796875 2109.617188 431.667969 C 2106.132812 427.796875 2101.871094 423.152344 2097.226562 417.730469 C 2094.90625 415.019531 2092.195312 412.3125 2089.484375 409.214844 C 2086.773438 406.117188 2083.675781 403.40625 2080.578125 399.921875 C 2055.800781 373.984375 2019.796875 342.238281 1980.308594 315.136719 C 1975.277344 311.652344 1970.242188 308.167969 1965.597656 305.070312 C 1960.566406 301.972656 1955.53125 298.875 1950.5 295.78125 C 1945.464844 292.683594 1940.433594 289.585938 1935.398438 286.488281 C 1930.367188 283.777344 1925.335938 281.066406 1920.300781 278.359375 C 1915.269531 275.648438 1910.621094 272.9375 1905.589844 270.613281 C 1900.558594 268.292969 1895.910156 265.96875 1891.265625 263.648438 C 1886.621094 261.324219 1881.972656 259 1877.714844 257.066406 C 1873.070312 255.128906 1868.8125 253.195312 1864.941406 251.644531 C 1848.292969 244.289062 1834.355469 239.257812 1824.289062 235.386719 C 1819.257812 233.449219 1815.386719 231.902344 1812.675781 231.125 C 1809.964844 230.351562 1808.417969 229.964844 1808.417969 229.964844 L 1867.648438 31.359375 C 1867.648438 31.359375 1869.585938 31.746094 1873.070312 32.90625 C 1876.554688 33.683594 1881.972656 35.230469 1888.554688 37.554688 C 1901.71875 41.8125 1920.6875 47.230469 1942.757812 55.75 C 1948.175781 57.683594 1953.984375 60.007812 1960.175781 62.332031 C 1965.984375 64.652344 1972.179688 67.363281 1978.375 70.074219 C 1984.566406 72.785156 1991.148438 75.492188 1997.730469 78.203125 C 2004.3125 80.914062 2010.894531 84.398438 2017.476562 87.496094 C 2024.058594 90.59375 2031.023438 94.078125 2037.992188 97.171875 C 2044.960938 100.65625 2051.542969 104.53125 2058.511719 108.015625 C 2065.480469 111.886719 2072.449219 115.371094 2079.03125 119.242188 C 2085.613281 123.5 2092.582031 127.371094 2099.164062 131.628906 L 2109.230469 137.824219 C 2112.714844 139.757812 2115.808594 142.082031 2119.292969 144.40625 C 2125.875 148.664062 2132.457031 153.308594 2138.652344 157.570312 C 2151.816406 166.085938 2163.816406 175.765625 2175.816406 184.667969 C 2199.433594 202.863281 2220.726562 221.058594 2238.148438 237.320312 C 2242.40625 241.191406 2246.664062 245.0625 2250.921875 248.933594 C 2254.796875 252.804688 2258.28125 256.289062 2261.765625 259.773438 C 2268.734375 266.742188 2274.539062 272.550781 2279.574219 277.582031 C 2288.863281 288.035156 2294.285156 293.84375 2294.285156 293.84375 Z M 2120.070312 444.445312 " fill-opacity="1" fill-rule="nonzero"/><path fill="#a6a6a6" d="M 1710.46875 205.1875 C 1710.46875 205.1875 1704.660156 204.414062 1693.820312 202.476562 C 1691.109375 202.089844 1688.402344 201.703125 1685.304688 200.929688 C 1682.207031 200.542969 1678.722656 200.15625 1674.851562 199.765625 C 1667.496094 198.992188 1658.976562 198.21875 1650.074219 197.058594 C 1613.683594 194.347656 1564.515625 193.574219 1515.734375 198.992188 C 1512.636719 199.378906 1509.539062 199.378906 1506.441406 199.765625 L 1497.539062 201.316406 C 1491.34375 202.089844 1485.535156 203.25 1479.34375 204.027344 C 1473.148438 204.800781 1467.339844 205.960938 1461.53125 207.125 C 1455.726562 208.285156 1449.917969 209.445312 1444.5 210.609375 C 1438.691406 211.382812 1433.273438 213.316406 1427.851562 214.480469 C 1422.429688 215.640625 1417.398438 217.1875 1411.976562 218.351562 C 1406.945312 219.511719 1401.914062 221.058594 1397.265625 222.609375 C 1392.621094 224.15625 1387.976562 225.320312 1383.328125 226.867188 C 1374.425781 229.191406 1366.683594 232.289062 1359.328125 234.996094 C 1352.359375 237.707031 1346.164062 239.644531 1341.128906 241.578125 C 1331.066406 245.835938 1325.644531 248.160156 1325.644531 248.160156 L 1252.472656 86.722656 C 1252.472656 86.722656 1259.441406 83.238281 1271.832031 77.429688 C 1278.027344 74.71875 1285.769531 71.621094 1294.285156 67.75 C 1303.191406 64.265625 1312.867188 59.621094 1323.710938 56.136719 C 1329.128906 54.199219 1334.9375 51.878906 1340.742188 49.941406 C 1346.550781 47.617188 1352.746094 45.296875 1359.328125 43.746094 C 1365.519531 41.8125 1372.101562 39.875 1379.070312 37.554688 C 1385.652344 35.617188 1392.621094 33.292969 1399.589844 31.359375 C 1406.558594 29.421875 1413.914062 27.875 1421.269531 25.9375 C 1428.625 24.003906 1435.980469 22.066406 1443.335938 20.519531 C 1450.691406 18.96875 1458.4375 17.421875 1466.179688 15.871094 L 1477.792969 13.550781 C 1481.664062 12.777344 1485.535156 12.386719 1489.40625 11.613281 C 1520.378906 6.582031 1551.351562 3.097656 1580.386719 1.546875 C 1587.742188 1.160156 1594.710938 0.773438 1602.066406 0.386719 C 1605.550781 0.386719 1609.035156 0 1612.519531 0 C 1616.003906 0 1619.488281 0 1622.585938 0 C 1636.136719 0 1648.523438 0 1660.527344 0 C 1672.140625 0.773438 1682.980469 1.160156 1692.660156 1.546875 C 1697.304688 1.9375 1701.949219 1.9375 1705.824219 2.324219 C 1710.082031 2.710938 1713.566406 3.097656 1717.050781 3.484375 C 1730.601562 5.03125 1738.34375 5.808594 1738.34375 5.808594 Z M 1710.46875 205.1875 " fill-opacity="1" fill-rule="nonzero"/><path fill="#a6a6a6" d="M 2081.742188 900.113281 L 2130.910156 907.46875 C 2129.359375 600.464844 1880.039062 352.304688 1573.03125 352.304688 C 1564.902344 352.304688 1556.769531 352.691406 1548.640625 352.691406 C 1841.710938 365.464844 2076.320312 604.722656 2081.742188 900.113281 Z M 2081.742188 900.113281 " fill-opacity="1" fill-rule="nonzero"/><path fill="#a6a6a6" d="M 1616.003906 831.589844 C 1608.648438 829.265625 1600.519531 827.71875 1592.386719 827.332031 C 1541.671875 825.007812 1498.699219 864.496094 1496.375 915.601562 C 1494.054688 966.316406 1533.542969 1009.289062 1584.644531 1011.613281 C 1592.777344 1012 1600.90625 1011.226562 1608.648438 1009.675781 L 2419.332031 950.058594 Z M 1582.324219 964.769531 C 1557.160156 964.769531 1537.027344 944.636719 1537.027344 919.472656 C 1537.027344 894.308594 1557.160156 874.175781 1582.324219 874.175781 C 1607.488281 874.175781 1627.617188 894.308594 1627.617188 919.472656 C 1627.617188 944.636719 1607.488281 964.769531 1582.324219 964.769531 Z M 1582.324219 964.769531 " fill-opacity="1" fill-rule="nonzero"/><path fill="#a6a6a6" d="M 791.382812 644.210938 C 791.382812 644.210938 789.449219 651.566406 786.351562 664.34375 C 784.414062 670.539062 783.253906 678.667969 781.316406 687.570312 C 780.542969 692.21875 779.382812 696.863281 778.21875 701.894531 C 777.058594 706.929688 775.898438 712.347656 775.121094 717.769531 C 770.089844 744.871094 766.21875 777.777344 764.28125 812.621094 L 1.992188 883.855469 L 893.203125 883.855469 C 894.75 832.75 902.105469 782.035156 910.625 744.871094 C 911.398438 740.222656 912.558594 735.964844 913.722656 731.707031 C 914.882812 727.449219 916.042969 723.578125 916.820312 719.703125 C 918.753906 712.347656 920.304688 705.765625 922.238281 700.347656 C 925.722656 689.894531 927.660156 683.699219 927.660156 683.699219 Z M 791.382812 644.210938 " fill-opacity="1" fill-rule="nonzero"/><path fill="#a6a6a6" d="M 1141.363281 151.375 C 1141.363281 151.375 1139.816406 152.535156 1136.71875 154.472656 C 1133.621094 156.40625 1129.363281 159.503906 1123.941406 163.375 C 1118.523438 167.246094 1111.941406 172.28125 1104.585938 178.085938 C 1100.714844 180.796875 1096.839844 183.894531 1092.582031 186.992188 C 1088.324219 190.476562 1084.066406 193.960938 1079.808594 197.445312 C 1070.902344 204.800781 1061.222656 212.542969 1051.546875 221.449219 C 1041.867188 230.351562 1031.027344 239.644531 1021.347656 249.710938 C 1011.28125 259.773438 1000.441406 270.226562 990.375 281.457031 C 985.34375 286.875 980.3125 292.683594 974.890625 298.488281 C 969.859375 304.296875 965.210938 310.105469 960.179688 315.910156 C 955.144531 321.71875 950.5 327.527344 945.46875 333.71875 C 940.820312 339.914062 936.175781 345.722656 931.917969 351.914062 C 927.660156 358.109375 922.625 363.917969 918.753906 370.113281 C 914.496094 376.304688 910.625 382.113281 906.367188 388.308594 C 898.234375 399.921875 891.265625 411.921875 884.296875 423.152344 C 880.8125 428.957031 877.328125 433.992188 874.621094 439.410156 C 871.523438 444.832031 868.8125 450.25 866.101562 455.285156 C 859.90625 466.511719 854.488281 476.964844 850.230469 485.867188 L 346.164062 586.140625 L 967.148438 586.140625 C 967.148438 586.140625 967.921875 584.589844 969.082031 581.878906 C 970.246094 579.171875 972.179688 575.300781 974.890625 570.652344 C 977.601562 566.007812 980.699219 559.8125 984.570312 553.230469 C 986.503906 549.746094 988.054688 546.261719 990.375 542.777344 C 992.699219 539.292969 995.023438 535.421875 997.34375 531.164062 C 999.667969 527.292969 1002.378906 523.035156 1005.085938 518.777344 C 1007.796875 514.515625 1010.894531 510.257812 1013.992188 505.613281 C 1020.1875 496.707031 1026.382812 487.03125 1033.738281 477.738281 C 1037.222656 473.09375 1040.707031 468.445312 1044.578125 463.414062 C 1048.0625 458.382812 1052.320312 454.121094 1056.191406 449.089844 C 1060.0625 444.445312 1063.933594 439.410156 1068.191406 434.765625 C 1072.453125 430.121094 1076.710938 425.472656 1080.96875 420.828125 C 1085.226562 416.183594 1089.484375 411.535156 1093.746094 407.277344 C 1098.003906 403.019531 1102.648438 398.375 1106.90625 394.113281 C 1115.425781 385.210938 1124.714844 377.46875 1133.234375 369.726562 C 1141.75 361.59375 1150.65625 355.011719 1159.171875 348.042969 C 1167.300781 341.074219 1175.820312 335.269531 1183.175781 329.847656 C 1187.046875 327.136719 1190.53125 324.429688 1194.015625 321.71875 C 1197.5 319.394531 1200.984375 317.074219 1204.082031 315.136719 C 1210.273438 310.878906 1215.695312 307.394531 1220.339844 304.296875 C 1224.988281 301.199219 1228.472656 299.265625 1231.179688 297.714844 C 1233.503906 296.167969 1235.050781 295.394531 1235.050781 295.394531 Z M 1141.363281 151.375 " fill-opacity="1" fill-rule="nonzero"/><g clip-path="url(#1a1db8253d)"><path fill="#a6a6a6" d="M 961.648438 354.199219 L 1044.609375 354.199219 L 1044.609375 437.160156 L 961.648438 437.160156 Z M 961.648438 354.199219 " fill-opacity="1" fill-rule="nonzero"/></g></svg>